<?xml version="1.0" encoding="UTF-8"?>
<svg version="1.1" xmlns="http://www.w3.org/2000/svg" width="500" height="500">
<path d="M0 0 C1.16257324 -0.00043808 2.32514648 -0.00087616 3.52294922 -0.00132751 C7.31585255 0.00074075 11.10829819 0.02397877 14.90112305 0.04760742 C17.55055997 0.05321037 20.19997245 0.05762498 22.84941101 0.06047058 C29.07872377 0.06973837 35.30787571 0.09427948 41.53711814 0.12451905 C48.63762445 0.15822868 55.73813905 0.17459039 62.83870566 0.18960536 C77.42600008 0.22083479 92.01316868 0.27349097 106.6003418 0.34057617 C106.01258178 4.82865644 105.34542136 8.45584099 103.3503418 12.52807617 C100.96789919 17.52775283 98.8090757 22.58566034 96.71362305 27.71166992 C95.75558023 29.97399559 94.72939758 32.1597972 93.6003418 34.34057617 C92.9403418 34.34057617 92.2803418 34.34057617 91.6003418 34.34057617 C91.2703418 35.33057617 90.9403418 36.32057617 90.6003418 37.34057617 C88.9284668 38.47338867 88.9284668 38.47338867 86.8503418 39.46557617 C85.83713867 39.96444336 85.83713867 39.96444336 84.8034668 40.47338867 C79.64115283 42.50536332 74.501849 42.4860505 69.02148438 42.48242188 C68.16874939 42.4858963 67.3160144 42.48937073 66.43743896 42.49295044 C64.5899349 42.50028728 62.74242213 42.50564367 60.894907 42.5092411 C57.96385774 42.51643353 55.03297329 42.53212174 52.10197449 42.55058289 C43.76966639 42.60291549 35.43744933 42.65099262 27.10498047 42.66650391 C22.00266644 42.67662319 16.90076912 42.70604714 11.79862022 42.74782372 C9.86153004 42.76008202 7.92438087 42.76526449 5.98725319 42.76302528 C-8.21283803 42.57068436 -8.21283803 42.57068436 -21.3996582 47.34057617 C-22.75317383 48.02700195 -22.75317383 48.02700195 -24.1340332 48.72729492 C-29.79742067 52.38215544 -33.21691867 56.41374389 -36.3996582 62.34057617 C-36.7399707 62.95545898 -37.0802832 63.5703418 -37.4309082 64.20385742 C-40.81788233 71.52662093 -40.78791454 81.37239579 -38.0871582 88.90307617 C-36.6523473 91.82583913 -35.10867412 94.57359801 -33.3996582 97.34057617 C-33.3996582 98.00057617 -33.3996582 98.66057617 -33.3996582 99.34057617 C-32.7396582 99.34057617 -32.0796582 99.34057617 -31.3996582 99.34057617 C-30.6984082 100.06245117 -29.9971582 100.78432617 -29.2746582 101.52807617 C-23.15453403 107.81955498 -15.81765902 110.48577347 -7.5246582 112.84057617 C-6.51959229 113.13681885 -5.51452637 113.43306152 -4.47900391 113.73828125 C2.5306743 115.79139707 9.57427986 117.71910097 16.62475586 119.62646484 C22.12052267 121.13888056 27.39616387 123.00000369 32.6003418 125.34057617 C32.6003418 126.00057617 32.6003418 126.66057617 32.6003418 127.34057617 C33.2603418 127.34057617 33.9203418 127.34057617 34.6003418 127.34057617 C35.95727539 128.98950195 35.95727539 128.98950195 37.4987793 131.28588867 C38.06081055 132.11604492 38.6228418 132.94620117 39.2019043 133.80151367 C39.78713867 134.6806543 40.37237305 135.55979492 40.9753418 136.46557617 C41.5528418 137.32151367 42.1303418 138.17745117 42.7253418 139.05932617 C43.84925625 140.72723575 44.96886494 142.39805639 46.08374023 144.07202148 C47.01415797 145.46375387 47.95301979 146.84994132 48.90600586 148.22631836 C51.6003418 152.13132507 51.6003418 152.13132507 51.6003418 154.34057617 C43.67982433 154.43419141 35.75954666 154.50479629 27.83860874 154.54782486 C24.15864266 154.56850002 20.47906121 154.59643796 16.79931641 154.64233398 C-3.11405697 154.88410015 -21.26360466 154.84174444 -39.3996582 145.34057617 C-40.28782227 144.92291992 -41.17598633 144.50526367 -42.09106445 144.07495117 C-55.22445893 137.57364067 -67.54081584 125.28904492 -74.3996582 112.34057617 C-74.3996582 111.35057617 -74.3996582 110.36057617 -74.3996582 109.34057617 C-75.0596582 109.34057617 -75.7196582 109.34057617 -76.3996582 109.34057617 C-77.03406748 107.86542062 -77.65656647 106.38514285 -78.2746582 104.90307617 C-78.62270508 104.07936523 -78.97075195 103.2556543 -79.3293457 102.40698242 C-85.3218753 85.23860385 -84.35265706 64.75864758 -76.73339844 48.38330078 C-71.74229573 38.09444621 -65.49096882 27.53991134 -56.3996582 20.34057617 C-55.7396582 20.34057617 -55.0796582 20.34057617 -54.3996582 20.34057617 C-54.3996582 19.68057617 -54.3996582 19.02057617 -54.3996582 18.34057617 C-38.62987113 5.86168304 -20.12039861 -0.20357908 0 0 Z " fill="#161616" transform="translate(240.399658203125,120.659423828125)"/>
<path d="M0 0 C6.54289063 -0.07703478 13.08566136 -0.12900559 19.62890625 -0.16479492 C21.8477007 -0.179739 24.06646636 -0.20010168 26.28515625 -0.22631836 C53.69342389 -0.54171133 76.88933207 3.18941482 97.69140625 22.66015625 C113.54265458 38.72597308 120.25737199 56.74749017 120.11108398 78.9909668 C120.0832005 80.99412603 120.04189364 82.99708479 120 85 C119.98324219 85.98484375 119.96648437 86.9696875 119.94921875 87.984375 C119.27175184 101.06916453 113.16245682 113.25631478 106 124 C105.34 124 104.68 124 104 124 C103.690625 124.61875 103.38125 125.2375 103.0625 125.875 C102.375 127.25 101.6875 128.625 101 130 C100.34 130 99.68 130 99 130 C99 130.66 99 131.32 99 132 C98.34 132 97.68 132 97 132 C97 132.66 97 133.32 97 134 C93.53846154 137 93.53846154 137 91 137 C91 137.66 91 138.32 91 139 C75.09178423 151.24537602 55.47523602 153.17443497 36.18481445 153.11352539 C34.33898018 153.11374443 34.33898018 153.11374443 32.45585632 153.1139679 C29.11774626 153.11339512 25.77969986 153.10841802 22.44160104 153.10139394 C18.93960019 153.09509588 15.43759829 153.09455154 11.93559265 153.09336853 C5.32024827 153.09027409 -1.29507938 153.08208642 -7.91041642 153.07201904 C-15.44861524 153.06079894 -22.9868149 153.05533266 -30.52502 153.05032361 C-46.01668966 153.03990201 -61.50834266 153.02233952 -77 153 C-76.37390467 148.94483942 -75.58348535 145.64567968 -73.8125 141.9375 C-72.34845027 138.85374008 -70.90362542 135.77745763 -69.546875 132.64453125 C-62.93265287 117.5188496 -62.93265287 117.5188496 -55.3125 114.125 C-48.68811775 111.8752098 -48.68811775 111.8752098 -44.88563538 111.87542725 C-44.04902374 111.87286423 -43.21241211 111.87030121 -42.35044861 111.86766052 C-40.97826927 111.87081017 -40.97826927 111.87081017 -39.57836914 111.87402344 C-38.61209595 111.8721553 -37.64582275 111.87028717 -36.65026855 111.86836243 C-34.54845001 111.86435535 -32.4466271 111.86228331 -30.34480476 111.86190033 C-25.86587714 111.85848282 -21.38709441 111.83711116 -16.90821743 111.81666946 C-8.56957104 111.77868925 -0.23107673 111.74737716 8.10766602 111.74951172 C13.90796767 111.75030197 19.70774212 111.72679615 25.50790596 111.6876297 C27.71129545 111.67721122 29.91474611 111.67561482 32.1181469 111.68328094 C46.38622809 111.72794351 57.64824248 111.65798985 69 102 C75.97967898 93.58900436 78.60475286 85.14257581 78.36328125 74.2890625 C77.79501669 69.14412963 76.06772575 64.70898127 74 60 C73.32934801 58.33493299 72.66152583 56.66871381 72 55 C71.34 55 70.68 55 70 55 C69.29875 54.278125 68.5975 53.55625 67.875 52.8125 C57.93469542 42.61363258 42.15482373 38.11564241 28.23828125 37.5390625 C22.69189885 36.20328454 19.34288357 32.62251526 16.4375 27.9375 C15.77621094 26.89980469 15.11492187 25.86210937 14.43359375 24.79296875 C14.06089355 24.20563965 13.68819336 23.61831055 13.30419922 23.01318359 C10.61980252 18.86950422 7.79708549 14.81803988 5 10.75 C3.8540453 9.07820818 2.7082025 7.40633966 1.5625 5.734375 C0.70843483 4.48951369 -0.14569091 3.24469392 -1 2 C-0.67 1.34 -0.34 0.68 0 0 Z " fill="#151515" transform="translate(230,197)"/>
<path d="M0 0 C2.31 0.33 4.62 0.66 7 1 C7.33 2.65 7.66 4.3 8 6 C7.01 6 6.02 6 5 6 C5.33 7.32 5.66 8.64 6 10 C3.66475218 7.74259377 1.81294927 5.7194239 0 3 C0 2.01 0 1.02 0 0 Z " fill="#333332" transform="translate(231,199)"/>
<path d="M0 0 C1.5625 1.25 1.5625 1.25 3 3 C3 4.9375 3 4.9375 2 7 C-0.5625 9.25 -0.5625 9.25 -3 11 C-2.44894091 7.0507432 -1.61064629 3.65079826 0 0 Z " fill="#4F4F4E" transform="translate(163,170)"/>
<path d="M0 0 C0.66 0.33 1.32 0.66 2 1 C1.34 2.65 0.68 4.3 0 6 C-0.66 6 -1.32 6 -2 6 C-2.66 7.32 -3.32 8.64 -4 10 C-4.66 9.34 -5.32 8.68 -6 8 C-6 7.34 -6 6.68 -6 6 C-5.38125 5.938125 -4.7625 5.87625 -4.125 5.8125 C-1.72238859 5.171081 -1.72238859 5.171081 -0.75 2.4375 C-0.5025 1.633125 -0.255 0.82875 0 0 Z " fill="#474747" transform="translate(336,315)"/>
<path d="M0 0 C0.66 0.66 1.32 1.32 2 2 C1.67 2.66 1.34 3.32 1 4 C1.66 4 2.32 4 3 4 C3 4.66 3 5.32 3 6 C1.35 6.66 -0.3 7.32 -2 8 C-1.125 1.125 -1.125 1.125 0 0 Z " fill="#3F3F3F" transform="translate(318,330)"/>
<path d="M0 0 C0.66 0.99 1.32 1.98 2 3 C1.125 5.6875 1.125 5.6875 0 8 C-0.99 7.67 -1.98 7.34 -3 7 C-1.125 1.125 -1.125 1.125 0 0 Z " fill="#424242" transform="translate(169,159)"/>
<path d="M0 0 C-1.66666667 1.66666667 -3.33333333 3.33333333 -5 5 C-7.625 4.625 -7.625 4.625 -10 4 C-7.39928297 0.98864344 -3.94054294 -1.97027147 0 0 Z " fill="#6F6F6F" transform="translate(208,128)"/>
<path d="M0 0 C0.66 0.33 1.32 0.66 2 1 C-1.465 3.97 -1.465 3.97 -5 7 C-5.66 6.34 -6.32 5.68 -7 5 C-4.69 3.35 -2.38 1.7 0 0 Z " fill="#565656" transform="translate(196,132)"/>
<path d="M0 0 C3.16115776 1.36983503 3.9927092 1.9890638 6 5 C3.0625 4.625 3.0625 4.625 0 4 C-0.33 3.34 -0.66 2.68 -1 2 C-0.67 1.34 -0.34 0.68 0 0 Z " fill="#4B4B4A" transform="translate(321,215)"/>
<path d="M0 0 C2.4294516 3.6441774 2.16179575 5.71241272 2 10 C1.01 9.67 0.02 9.34 -1 9 C-0.67 6.03 -0.34 3.06 0 0 Z " fill="#4A4A4A" transform="translate(347,254)"/>
</svg>
